<?xml version="1.0" standalone="no"?>
<!DOCTYPE svg PUBLIC "-//W3C//DTD SVG 20010904//EN"
 "http://www.w3.org/TR/2001/REC-SVG-20010904/DTD/svg10.dtd">
<svg version="1.0" xmlns="http://www.w3.org/2000/svg"
 width="260.000000pt" height="260.000000pt" viewBox="0 0 260.000000 260.000000"
 preserveAspectRatio="xMidYMid meet">
<metadata>
Created by potrace 1.11, written by Peter Selinger 2001-2013
</metadata>
<g transform="translate(0.000000,260.000000) scale(0.100000,-0.100000)"
fill="#000000" stroke="none">
<path d="M0 2080 l0 -520 698 -3 697 -2 -698 -3 -697 -2 0 -775 0 -775 1300 0
1300 0 0 525 0 525 -368 3 -367 2 368 3 367 2 0 245 0 245 -382 3 -383 2 382
3 383 2 0 520 0 520 -1300 0 -1300 0 0 -520z m1847 434 c-3 -3 -12 -4 -19 -1
-8 3 -5 6 6 6 11 1 17 -2 13 -5z m313 -149 c0 -52 -34 -70 -130 -70 -84 0
-110 -14 -110 -57 0 -21 -5 -23 -50 -26 -44 -3 -50 -1 -50 16 0 11 9 22 20 25
20 5 20 6 -5 31 -21 21 -35 26 -79 26 -39 0 -57 -5 -67 -17 -11 -15 -11 -16 1
-5 19 16 30 15 30 -3 0 -8 7 -15 15 -15 9 0 18 7 21 15 4 8 10 15 16 15 5 0 6
-5 2 -11 -3 -6 -2 -14 4 -18 6 -3 14 -19 18 -35 l7 -30 -36 23 c-21 12 -37 18
-37 13 0 -6 -10 -8 -22 -6 -13 2 0 -4 27 -15 28 -11 45 -20 38 -20 -6 -1 -23
3 -37 9 -17 6 -27 6 -32 -1 -3 -6 -12 -8 -18 -6 -7 3 -28 2 -47 -3 l-34 -8 43
-1 c24 -1 41 -5 37 -10 -3 -6 16 -13 42 -17 27 -4 52 -12 56 -18 5 -6 7 1 4
17 -2 16 -1 25 3 20 4 -4 10 -27 14 -50 5 -32 3 -42 -6 -39 -7 1 -10 1 -5 -1
22 -13 1 -116 -27 -135 -8 -6 -8 -8 0 -8 18 0 33 23 43 66 l9 39 2 -35 c2 -25
4 -28 7 -12 2 12 9 22 14 22 5 0 10 -10 10 -22 1 -17 3 -18 6 -6 2 10 -3 55
-11 100 -9 45 -12 85 -8 89 11 10 72 19 72 11 0 -19 41 -51 58 -46 14 5 14 4
2 -4 -8 -6 -18 -8 -24 -5 -5 4 -7 -1 -3 -10 3 -10 2 -17 -4 -17 -6 0 -9 -10
-8 -22 2 -13 0 -29 -4 -35 -5 -9 1 -17 17 -25 20 -9 23 -14 15 -25 -9 -10 -6
-12 20 -7 25 5 31 3 31 -10 0 -13 4 -15 19 -6 26 13 31 13 31 -3 0 -30 -28
-67 -62 -83 -30 -13 -55 -15 -135 -10 -181 11 -311 24 -326 33 -5 3 1 14 12
24 26 24 28 100 5 144 -28 52 -35 85 -18 92 21 8 17 22 -6 16 -11 -3 -28 -2
-37 2 -16 6 -16 9 7 28 14 12 34 32 45 45 l19 23 -26 -10 c-14 -5 -29 -7 -34
-3 -4 4 -4 2 -1 -4 4 -8 -6 -14 -27 -18 -29 -6 -47 -22 -50 -48 -1 -3 -4 -9
-8 -13 -4 -4 -4 -13 -1 -21 6 -16 -5 -18 -26 -5 -10 7 -8 12 10 25 13 9 18 16
12 16 -20 0 -53 -51 -53 -82 0 -37 26 -88 45 -88 8 0 15 -6 15 -14 0 -10 7
-12 22 -8 l22 5 -22 8 c-12 5 -22 13 -22 18 0 5 -3 18 -6 28 -4 13 -3 15 4 5
23 -33 98 44 77 78 -4 6 -2 10 4 10 18 0 23 -21 11 -51 -7 -16 -16 -29 -21
-29 -5 0 -9 -5 -9 -11 0 -6 7 -9 14 -6 10 4 21 -7 33 -34 14 -33 19 -37 24
-22 6 13 8 9 8 -14 1 -21 -7 -41 -20 -54 -19 -19 -29 -21 -103 -16 -44 3 -106
11 -136 16 -31 6 -67 11 -80 11 -62 -1 -62 -1 -55 59 3 30 3 52 0 49 -7 -6
-13 -47 -14 -87 -1 -13 -4 -21 -8 -18 -3 4 -11 3 -17 -2 -16 -13 -158 -33
-166 -24 -4 4 -4 19 1 33 6 23 7 23 8 3 1 -12 6 -25 12 -29 11 -7 29 12 29 31
0 6 -4 3 -10 -5 -13 -20 -21 -9 -27 39 -4 26 -2 41 5 41 12 0 17 15 28 74 5
28 4 37 -5 32 -14 -9 -14 -1 -1 24 7 14 6 20 -6 24 -13 5 -15 15 -11 47 6 43
17 62 24 42 3 -7 11 -13 19 -13 8 0 14 -4 14 -10 0 -6 3 -9 8 -8 4 1 22 -3 41
-10 26 -9 32 -16 28 -32 -5 -21 0 -23 73 -22 19 0 37 -3 40 -8 3 -5 12 -5 20
0 13 8 12 10 -2 10 -24 0 -23 32 2 48 16 10 20 10 20 0 0 -10 3 -9 9 1 5 7 13
11 19 7 5 -3 12 5 14 18 6 30 -11 36 -72 23 -39 -8 -42 -11 -27 -22 16 -12 15
-13 -9 -19 -38 -10 -81 2 -87 24 -7 26 -62 35 -145 22 -48 -7 -61 -11 -46 -16
16 -6 21 -17 22 -47 1 -21 -2 -39 -7 -39 -5 0 -7 -9 -4 -19 3 -11 0 -28 -6
-38 -8 -14 -11 -15 -12 -3 -3 43 -7 67 -14 83 -5 11 -3 17 6 17 8 0 4 7 -8 15
-12 8 -23 25 -25 36 -3 21 -3 21 -28 2 -14 -11 -37 -23 -52 -27 -16 -3 -28
-11 -28 -17 0 -6 7 -6 21 1 20 11 20 11 -2 -19 -21 -29 -38 -43 -24 -21 3 6
-1 7 -10 3 -13 -5 -14 -7 -3 -14 10 -7 11 -12 1 -29 -18 -27 -16 -77 2 -84 11
-4 15 2 15 20 0 14 4 22 10 19 5 -3 23 25 40 62 35 77 50 73 50 -11 0 -44 2
-48 13 -31 16 21 22 14 31 -37 4 -21 2 -39 -4 -43 -5 -3 -10 -11 -10 -17 0 -6
9 -3 21 8 11 10 18 26 16 36 -3 10 -1 15 5 12 6 -4 7 -29 3 -63 -4 -31 -8 -66
-10 -79 -1 -12 -4 -25 -7 -27 -3 -3 -72 -8 -154 -11 -82 -3 -173 -7 -203 -8
-62 -3 -111 11 -112 34 -1 8 -5 4 -9 -10 -9 -26 -3 358 6 418 l5 32 849 0 850
0 0 -35z m-4 -73 c7 -4 13 -73 17 -190 3 -101 3 -181 -1 -178 -3 3 -14 43 -24
88 -40 172 -40 171 -50 157 -7 -10 -8 -8 -5 9 3 12 1 20 -4 16 -5 -3 -9 9 -9
27 0 21 8 40 26 55 27 26 33 28 50 16z m-97 -42 c7 -17 10 -37 8 -45 -3 -7 -1
-15 5 -17 7 -3 8 -10 4 -17 -6 -10 -10 -10 -16 -2 -4 7 -5 -13 -2 -44 l4 -55
-30 0 c-19 0 -35 7 -41 18 -6 9 -11 12 -11 5 0 -6 7 -19 16 -27 8 -9 11 -16 4
-16 -6 0 -16 12 -22 26 -10 21 -9 30 4 52 9 15 23 27 30 28 33 3 30 6 -12 17
-35 9 -46 17 -48 35 -5 31 22 70 50 74 34 6 42 1 57 -32z m-586 -77 c-15 -43
-73 -78 -88 -53 -4 6 1 7 12 3 15 -5 16 -3 6 8 -16 16 -17 29 -2 29 5 0 7 -4
4 -10 -3 -5 1 -10 9 -10 9 0 16 6 16 13 0 8 4 7 10 -3 8 -12 10 -11 10 6 0 22
8 34 21 34 5 0 6 -8 2 -17z m-486 -80 c-3 -10 -5 -2 -5 17 0 19 2 27 5 18 2
-10 2 -26 0 -35z m557 8 c3 -5 -1 -11 -9 -14 -9 -4 -12 -1 -8 9 6 16 10 17 17
5z m592 -99 c12 -43 11 -45 -29 -46 -39 -1 -39 -1 -33 33 9 56 47 64 62 13z
m-663 -179 c-7 -2 -19 -2 -25 0 -7 3 -2 5 12 5 14 0 19 -2 13 -5z m101 -10 c3
-4 19 -7 34 -8 91 -4 107 -6 87 -14 -11 -5 -24 -6 -29 -3 -5 3 -6 0 -2 -6 4
-7 17 -7 43 0 53 14 273 -18 274 -41 0 -10 2 -12 6 -3 2 6 13 12 24 12 11 0
19 -6 18 -12 -3 -26 1 -39 11 -33 5 3 7 13 4 23 -5 14 -4 14 4 2 6 -8 8 -19 5
-25 -4 -5 -2 -6 3 -2 5 5 9 14 9 20 0 7 8 13 19 15 17 4 17 2 -2 -19 -12 -12
-19 -26 -16 -30 2 -4 -1 -11 -7 -15 -7 -4 -9 -3 -6 3 4 6 -4 13 -18 16 -17 3
-29 -1 -35 -12 -7 -13 -12 -14 -29 -3 -13 7 -21 8 -21 2 0 -13 -339 -14 -374
0 -15 5 -28 6 -31 0 -3 -5 -12 -7 -20 -4 -8 4 -13 10 -10 14 3 4 -2 11 -11 14
-8 3 -13 2 -10 -2 2 -4 -4 -8 -14 -8 -10 0 -16 4 -14 8 3 4 1 8 -5 8 -5 0 -11
-5 -13 -12 -3 -8 -6 -7 -10 3 -3 9 -1 16 5 17 47 6 71 12 80 21 13 13 11 13
-30 2 -18 -5 -35 -6 -38 -1 -5 9 33 21 79 25 20 2 24 0 15 -6 -11 -7 -10 -9 4
-9 9 0 17 7 17 16 0 8 5 12 11 8 8 -5 8 -1 0 14 -7 13 -24 22 -44 25 l-32 4
31 1 c17 1 34 -1 38 -5z m253 -259 c-3 -3 -12 -4 -19 -1 -8 3 -5 6 6 6 11 1
17 -2 13 -5z m-1210 -501 c-108 -2 -286 -2 -395 0 -108 1 -19 2 198 2 217 0
306 -1 197 -2z m1120 0 c-20 -2 -52 -2 -70 0 -17 2 0 4 38 4 39 0 53 -2 32 -4z
m-1189 -124 c-4 -18 42 -18 52 0 7 13 12 14 29 3 14 -8 21 -9 21 -1 0 7 63 10
208 8 209 -2 236 -5 227 -19 -3 -4 2 -11 11 -14 8 -3 13 -2 10 2 -2 4 4 8 14
8 10 0 16 -4 14 -8 -3 -4 -1 -8 5 -8 5 0 11 5 13 12 3 8 6 7 10 -3 3 -9 1 -16
-5 -16 -28 -1 -71 -13 -80 -22 -6 -6 3 -7 26 -1 45 10 57 0 20 -15 -19 -8 -37
-9 -55 -3 -34 12 -61 -9 -46 -35 7 -13 5 -17 -9 -17 -39 0 -93 13 -93 22 0 5
5 6 12 2 6 -4 8 -3 4 4 -5 8 -15 8 -37 0 -45 -15 -279 19 -280 42 0 10 -2 11
-6 3 -2 -7 -14 -13 -24 -13 -11 0 -17 4 -14 10 3 5 1 18 -4 27 -10 17 -10 16
-11 -2 0 -15 -8 -21 -33 -22 -21 -2 -27 0 -18 6 7 5 10 14 7 20 -4 7 -2 10 5
9 7 -2 14 3 15 10 2 19 4 22 9 22 3 0 4 -5 3 -11z m535 -136 c-7 -2 -21 -2
-30 0 -10 3 -4 5 12 5 17 0 24 -2 18 -5z m70 -10 c-7 -2 -19 -2 -25 0 -7 3 -2
5 12 5 14 0 19 -2 13 -5z m-258 -77 c92 -9 159 -18 168 -23 5 -3 -1 -14 -12
-24 -26 -24 -28 -100 -5 -144 28 -52 35 -85 18 -92 -21 -8 -17 -22 6 -16 11 3
28 2 37 -2 16 -6 15 -9 -7 -28 -14 -12 -32 -30 -39 -39 -12 -16 -11 -18 12
-16 14 1 24 5 21 9 -2 4 11 10 30 13 29 6 47 22 50 48 1 3 4 9 8 13 4 4 4 13
1 21 -6 16 5 18 26 5 10 -7 8 -12 -10 -25 -13 -9 -18 -16 -12 -16 34 0 70 100
46 124 -5 4 -8 13 -8 19 0 7 -10 16 -22 22 -13 5 -23 15 -23 21 0 8 -9 10 -22
6 l-22 -5 22 -8 c12 -5 22 -13 22 -18 0 -5 3 -18 6 -28 4 -13 3 -15 -4 -5 -23
33 -98 -44 -77 -78 4 -6 2 -10 -4 -10 -18 0 -23 21 -11 51 7 16 16 29 21 29 5
0 9 5 9 11 0 6 -6 9 -14 6 -9 -4 -20 9 -32 35 -15 33 -19 37 -25 22 -6 -14 -8
-9 -8 17 -1 61 22 73 128 66 49 -3 95 -8 101 -12 6 -3 45 -8 88 -9 l77 -3 -2
-58 c-1 -32 0 -55 3 -52 6 5 12 48 13 86 1 13 4 21 8 18 3 -4 11 -3 17 2 16
13 158 33 166 24 4 -4 4 -19 -1 -33 -6 -23 -7 -23 -8 -3 -1 12 -6 25 -12 29
-11 7 -29 -12 -29 -31 0 -5 4 -3 10 5 13 20 21 9 27 -39 4 -26 2 -41 -5 -41
-12 0 -17 -15 -28 -74 -5 -28 -4 -37 5 -32 14 9 14 1 1 -24 -7 -14 -6 -20 6
-24 13 -5 15 -15 11 -47 -6 -43 -17 -62 -24 -41 -3 6 -11 12 -19 12 -8 0 -14
4 -14 10 0 5 -3 9 -7 8 -5 -1 -23 3 -42 10 -26 9 -32 16 -28 32 5 21 0 23 -73
22 -19 0 -37 3 -40 8 -3 5 -12 5 -20 0 -13 -8 -12 -10 3 -10 23 0 22 -32 -3
-48 -16 -10 -20 -10 -20 0 0 10 -3 9 -9 -1 -5 -7 -13 -11 -19 -7 -5 3 -12 -5
-14 -19 -5 -24 7 -32 37 -25 10 2 36 6 65 9 12 1 12 4 -3 15 -16 13 -16 14 9
20 38 10 81 -2 87 -24 7 -26 62 -35 145 -22 48 7 61 11 46 16 -16 6 -21 17
-22 47 -1 21 2 39 7 39 5 0 7 9 4 19 -3 11 0 28 6 38 10 17 10 17 12 -2 1 -11
1 -26 0 -34 -2 -7 1 -11 6 -8 12 7 10 -47 -2 -56 -6 -5 -3 -7 7 -4 12 4 18 -3
25 -30 l8 -35 25 20 c14 10 37 22 53 26 15 3 27 11 27 17 0 6 -7 6 -21 -1 -20
-11 -20 -11 2 19 21 29 38 43 24 21 -3 -6 1 -7 10 -3 13 4 14 8 4 14 -10 6
-10 13 -1 34 16 36 15 72 -3 79 -11 4 -15 -2 -15 -22 0 -17 -3 -22 -8 -15 -5
9 -19 -12 -40 -60 -37 -81 -52 -79 -52 7 0 44 -2 48 -13 31 -16 -21 -22 -14
-31 37 -4 21 -2 39 4 43 5 3 10 12 10 18 0 7 -12 -1 -26 -17 l-26 -29 7 54 c4
30 8 64 10 77 1 12 5 25 7 28 3 2 72 7 154 10 82 3 173 7 203 8 62 3 111 -11
112 -34 1 -8 5 -4 9 10 9 26 3 -358 -6 -418 l-5 -32 -849 0 -850 0 0 35 c0 52
34 70 130 70 85 0 110 14 110 60 0 18 4 24 13 18 15 -9 -21 48 -42 65 -10 9
-11 11 -2 6 11 -5 13 -3 8 9 -3 10 -2 17 4 17 6 0 9 10 8 23 -2 12 0 28 4 34
5 9 -1 17 -17 25 -19 8 -23 14 -16 24 8 9 3 12 -22 11 -22 -2 -32 2 -30 11 2
10 -2 10 -17 2 -26 -14 -29 -13 -26 8 10 76 46 93 185 88 58 -3 132 -7 165
-10z m-443 -108 c40 -172 40 -171 50 -157 7 10 8 8 5 -9 -3 -12 -1 -20 4 -16
5 3 9 -9 9 -27 0 -21 -8 -40 -26 -55 -54 -51 -60 -34 -67 174 -3 101 -3 181 1
178 3 -3 14 -43 24 -88z m74 23 c-9 -60 -46 -63 -63 -6 -6 19 -9 35 -8 37 2 2
20 3 40 3 36 0 37 0 31 -34z m104 -108 c0 -24 -31 -62 -46 -56 -8 3 -14 1 -14
-4 0 -5 17 -14 38 -19 41 -10 51 -33 30 -73 -13 -25 -58 -44 -74 -32 -17 12
-37 60 -31 75 3 8 1 16 -5 18 -7 3 -8 10 -4 17 6 10 10 10 16 2 4 -7 5 13 2
44 l-4 55 29 0 c16 0 35 -6 42 -12 11 -11 11 -9 2 12 -11 24 -11 24 3 6 9 -11
16 -26 16 -33z m445 -2 c-3 -6 -11 -8 -17 -5 -6 4 -5 9 3 15 16 10 23 4 14
-10z m542 -28 c-3 -10 -5 -2 -5 17 0 19 2 27 5 18 2 -10 2 -26 0 -35z m-402 7
c4 -6 -1 -7 -12 -3 -16 6 -16 5 -4 -10 8 -10 11 -21 7 -24 -4 -4 -11 -1 -17 7
-8 13 -10 13 -19 0 -9 -13 -10 -13 -11 0 0 8 -4 4 -8 -9 -4 -14 -12 -26 -19
-29 -17 -5 -4 28 22 55 22 23 51 29 61 13z m-438 -396 c-3 -3 -12 -4 -19 -1
-8 3 -5 6 6 6 11 1 17 -2 13 -5z"/>
<path d="M483 2345 c-7 -7 -15 -26 -19 -42 -7 -28 -7 -28 14 -9 18 16 24 17
37 6 22 -18 25 -10 10 28 -15 35 -24 39 -42 17z"/>
<path d="M558 2311 l22 -11 -21 -21 c-14 -14 -19 -29 -16 -45 4 -21 0 -24 -27
-25 -17 -1 -38 0 -46 1 -8 1 -12 -1 -8 -5 4 -4 35 -13 70 -20 48 -10 64 -11
70 -2 4 7 1 14 -8 17 -12 5 -11 9 6 28 21 22 45 29 52 14 2 -4 11 0 21 11 11
11 13 17 5 16 -19 -4 -68 22 -62 32 3 5 -3 9 -13 9 -10 0 -29 3 -43 5 -24 5
-24 5 -2 -4z"/>
<path d="M1443 2294 c9 -3 15 -10 12 -15 -4 -5 -1 -9 5 -9 19 0 5 25 -16 27
-16 2 -16 1 -1 -3z"/>
<path d="M664 2218 c-4 -6 -3 -8 3 -5 6 4 14 0 17 -9 3 -8 2 -13 -2 -10 -4 2
-8 -3 -9 -12 0 -9 -2 -38 -3 -64 -2 -26 -7 -45 -11 -42 -4 2 -10 1 -13 -4 -3
-5 2 -9 11 -9 8 0 20 13 25 29 6 15 14 25 20 22 10 -7 5 86 -6 105 -9 14 -23
14 -32 -1z"/>
<path d="M1150 2160 c0 -10 5 -20 10 -22 6 -2 12 -13 13 -25 0 -12 5 -20 9
-17 4 3 5 11 2 18 -3 7 2 16 10 19 9 4 16 15 16 25 0 14 -8 19 -30 20 -23 0
-30 -4 -30 -18z"/>
<path d="M491 2127 c-3 -31 51 -108 66 -93 4 3 -3 13 -15 22 -13 9 -29 30 -36
47 -8 18 -15 28 -15 24z"/>
<path d="M1707 2096 c-4 -9 -2 -16 3 -16 5 0 7 -8 3 -17 -3 -10 -3 -15 2 -11
4 4 16 -2 26 -14 11 -11 19 -17 19 -12 0 6 -5 15 -12 22 -9 9 -8 12 6 12 12 0
16 6 14 23 -4 27 -52 37 -61 13z"/>
<path d="M590 2039 c0 -5 5 -7 10 -4 6 3 10 8 10 11 0 2 -4 4 -10 4 -5 0 -10
-5 -10 -11z"/>
<path d="M1829 1944 c-9 -19 -13 -34 -8 -34 12 0 31 38 27 54 -2 7 -10 -2 -19
-20z"/>
<path d="M1791 1927 c-13 -21 -12 -21 5 -5 10 10 16 20 13 22 -3 3 -11 -5 -18
-17z"/>
<path d="M1603 1793 c9 -2 23 -2 30 0 6 3 -1 5 -18 5 -16 0 -22 -2 -12 -5z"/>
<path d="M978 813 c6 -2 18 -2 25 0 6 3 1 5 -13 5 -14 0 -19 -2 -12 -5z"/>
<path d="M760 679 c-6 -11 -10 -26 -8 -33 2 -7 10 2 19 20 18 36 7 48 -11 13z"/>
<path d="M800 685 c-7 -9 -11 -17 -9 -20 3 -2 10 5 17 15 14 24 10 26 -8 5z"/>
<path d="M811 647 c-6 -8 -15 -31 -20 -53 l-9 -39 -2 35 c-2 25 -4 28 -7 13
-2 -13 -9 -23 -14 -23 -5 0 -10 10 -10 23 -1 16 -3 17 -6 5 -2 -10 3 -55 11
-100 9 -45 12 -85 8 -89 -4 -4 -18 -9 -32 -12 -18 -3 -15 -5 13 -6 29 -1 37
-5 37 -20 0 -10 -9 -21 -20 -24 -20 -5 -20 -6 5 -31 21 -21 35 -26 79 -26 39
0 57 5 67 18 11 14 11 15 -1 5 -19 -17 -30 -16 -30 2 0 8 -9 15 -20 15 -11 0
-20 -7 -20 -15 0 -8 -5 -15 -11 -15 -5 0 -7 5 -3 11 3 6 2 14 -4 18 -6 3 -14
19 -18 35 l-7 30 36 -23 c21 -12 37 -18 37 -13 0 6 10 8 23 6 12 -2 0 4 -27
14 -28 10 -52 25 -54 33 -2 9 -1 10 5 3 13 -17 72 -34 79 -23 3 6 12 8 18 6 7
-3 28 -2 47 3 l34 8 -43 1 c-25 1 -41 5 -37 11 3 5 -16 12 -45 16 -27 4 -50
12 -51 18 0 6 -4 2 -9 -9 l-9 -20 0 20 c-1 11 -4 30 -7 43 -5 16 -3 21 7 19 8
-2 11 -2 7 0 -23 13 -2 116 26 135 8 6 8 8 0 8 -6 0 -17 -6 -23 -13z"/>
<path d="M840 583 c0 -5 5 -14 12 -21 9 -9 8 -12 -6 -12 -12 0 -16 -6 -14 -22
4 -28 52 -38 61 -14 4 9 2 16 -3 16 -5 0 -7 7 -4 15 4 8 1 15 -4 15 -6 0 -18
7 -26 16 -9 8 -16 12 -16 7z"/>
<path d="M1995 570 c-3 -5 -1 -10 4 -10 6 0 11 5 11 10 0 6 -2 10 -4 10 -3 0
-8 -4 -11 -10z"/>
<path d="M2040 574 c0 -3 11 -15 24 -25 13 -10 27 -31 30 -45 4 -15 9 -24 12
-21 7 7 -24 80 -39 89 -15 9 -27 10 -27 2z"/>
<path d="M1918 518 c-6 -15 -14 -25 -19 -22 -14 8 -3 -96 10 -109 8 -8 15 -7
24 2 7 9 7 11 1 8 -7 -4 -15 0 -18 9 -3 8 -2 13 2 10 4 -2 8 3 9 12 0 9 2 38
3 64 2 26 7 45 11 42 4 -2 10 -1 13 4 3 5 -2 9 -11 9 -8 0 -20 -13 -25 -29z"/>
<path d="M1416 512 c-3 -2 -2 -10 0 -17 3 -7 -2 -15 -10 -18 -9 -4 -16 -15
-16 -25 0 -14 8 -19 30 -20 23 0 30 4 30 18 0 10 -6 20 -12 23 -10 3 -10 9 -1
24 9 16 8 20 -3 20 -8 0 -16 -2 -18 -5z"/>
<path d="M1996 425 c-3 -9 0 -15 9 -15 13 0 13 -3 3 -20 -15 -24 -48 -36 -57
-21 -4 6 -11 3 -19 -9 -7 -11 -9 -19 -5 -18 15 3 62 -25 57 -33 -3 -5 3 -9 13
-9 10 0 29 -3 43 -5 24 -5 24 -5 4 6 -22 11 -22 11 -2 31 13 13 18 29 15 44
-3 20 0 24 22 26 14 0 35 0 45 -1 36 -3 8 10 -51 24 -73 18 -70 18 -77 0z"/>
<path d="M1132 328 c2 -6 10 -13 16 -14 7 -1 8 0 2 3 -5 2 -8 9 -4 14 3 5 0 9
-6 9 -7 0 -10 -5 -8 -12z"/>
<path d="M2117 313 c-13 -13 -19 -14 -29 -5 -21 21 -27 13 -16 -18 13 -38 24
-45 43 -27 13 14 32 67 23 67 -2 0 -11 -8 -21 -17z"/>
<path d="M948 313 c7 -3 16 -2 19 1 4 3 -2 6 -13 5 -11 0 -14 -3 -6 -6z"/>
</g>
</svg>
